<svg xmlns="http://www.w3.org/2000/svg" viewBox="0 0 32 32">
					<g>
						<rect class="icon" x="18.9" y="19.9" width="3" height="1.9"></rect>
						<rect class="icon" x="14.7" y="14.2" width="3" height="1.9"></rect>
						<rect class="icon" x="14.7" y="17" width="3" height="1.9"></rect>
						<rect class="icon" x="18.9" y="14.2" width="3" height="1.9"></rect>
						<rect class="icon" x="18.9" y="17" width="3" height="1.9"></rect>
						<rect class="icon" x="10.5" y="17" width="3" height="1.9"></rect>
						<rect class="icon" x="10.5" y="19.9" width="3" height="1.9"></rect>
						<rect class="icon" x="14.7" y="19.9" width="3" height="1.9"></rect>
						<path class="icon" d="M16,0C7.2,0,0,7.2,0,16s7.2,16,16,16s16-7.2,16-16S24.8,0,16,0z M18.8,8.7c0-1,1.5-1,1.5,0V10c0,1-1.5,1-1.5,0V8.7z
							 M12.1,8.7c0-1,1.5-1,1.5,0V10c0,1-1.5,1-1.5,0V8.7z M6.7,22.2C6.7,22.2,6.7,22.2,6.7,22.2C6.7,22.2,6.8,22.3,6.7,22.2
							C6.7,22.3,6.7,22.2,6.7,22.2z M23.5,22.1c0,0.5-0.5,1-1,1H9.9c-0.5,0-1-0.4-1-1V13h14.6V22.1z M23.5,12.4H8.9v-2c0-0.5,0.4-1,1-1
							h1.7V10c0,1.6,2.4,1.6,2.4,0h0V9.4h4.3V10c0,1.6,2.4,1.6,2.4,0h0V9.4h1.7c0.5,0,1,0.4,1,1V12.4z"></path>

					</g></svg>
