<svg xmlns="http://www.w3.org/2000/svg" viewBox="0 0 32 32"><g>
				<path class="icon" d="M15.4,15.2h0.7c0.1,0,0.2-0.1,0.2-0.2v-0.7c0-0.1-0.1-0.2-0.2-0.2h-0.7c-0.1,0-0.2,0.1-0.2,0.2v0.7 C15.3,15.2,15.3,15.2,15.4,15.2z"></path>
				<path class="icon" d="M15.6,17.5c-0.1,0-0.2,0.1-0.2,0.2v0.7c0,0.1,0.1,0.2,0.2,0.2h0.7c0.1,0,0.2-0.1,0.2-0.2v-0.7c0-0.1-0.1-0.2-0.2-0.2H15.6z"></path>
				<path class="icon" d="M16.3,16.7c0,0.1,0.1,0.2,0.2,0.2h0.7c0.1,0,0.2-0.1,0.2-0.2V16c0-0.1-0.1-0.2-0.2-0.2h-0.7c-0.1,0-0.2,0.1-0.2,0.2V16.7z"></path>
				<path class="icon" d="M12,17.5c-0.1,0-0.2,0.1-0.2,0.2v0.7c0,0.1,0.1,0.2,0.2,0.2h0.7c0.1,0,0.2-0.1,0.2-0.2v-0.7c0-0.1-0.1-0.2-0.2-0.2H12z"></path>
				<path class="icon" d="M14.4,17.5h-0.7c-0.1,0-0.2,0.1-0.2,0.2v0.7c0,0.1,0.1,0.2,0.2,0.2h0.7c0.1,0,0.2-0.1,0.2-0.2v-0.7
					C14.6,17.6,14.5,17.5,14.4,17.5z"></path>
				<path class="icon" d="M12.8,16v0.7c0,0.1,0.1,0.2,0.2,0.2h0.7c0.1,0,0.2-0.1,0.2-0.2V16c0-0.1-0.1-0.2-0.2-0.2H13C12.9,15.8,12.8,15.9,12.8,16z"></path>
				<path class="icon" d="M12.2,15.2h0.7c0.1,0,0.2-0.1,0.2-0.2v-0.7c0-0.1-0.1-0.2-0.2-0.2h-0.7c-0.1,0-0.2,0.1-0.2,0.2v0.7
					C12.1,15.2,12.1,15.2,12.2,15.2z"></path>
				<path class="icon" d="M13.8,15.2h0.7c0.1,0,0.2-0.1,0.2-0.2v-0.7c0-0.1-0.1-0.2-0.2-0.2h-0.7c-0.1,0-0.2,0.1-0.2,0.2v0.7
					C13.7,15.2,13.7,15.2,13.8,15.2z"></path>
				<path class="icon" d="M18.6,15.2h0.7c0.1,0,0.2-0.1,0.2-0.2v-0.7c0-0.1-0.1-0.2-0.2-0.2h-0.7c-0.1,0-0.2,0.1-0.2,0.2v0.7
					C18.4,15.2,18.5,15.2,18.6,15.2z"></path>
				<path class="icon" d="M21.5,16.8h0.7c0.1,0,0.2-0.1,0.2-0.2V16c0-0.1-0.1-0.2-0.2-0.2h-0.7c-0.1,0-0.2,0.1-0.2,0.2v0.7
					C21.4,16.8,21.4,16.8,21.5,16.8z"></path>
				<path class="icon" d="M20.2,15.2h0.7c0.1,0,0.2-0.1,0.2-0.2v-0.7c0-0.1-0.1-0.2-0.2-0.2h-0.7c-0.1,0-0.2,0.1-0.2,0.2v0.7
					C20,15.2,20.1,15.2,20.2,15.2z"></path>
				<path class="icon" d="M17,15.2h0.7c0.1,0,0.2-0.1,0.2-0.2v-0.7c0-0.1-0.1-0.2-0.2-0.2H17c-0.1,0-0.2,0.1-0.2,0.2v0.7
					C16.8,15.2,16.9,15.2,17,15.2z"></path>
				<path class="icon" d="M19.8,16.8h0.7c0.1,0,0.2-0.1,0.2-0.2V16c0-0.1-0.1-0.2-0.2-0.2h-0.7c-0.1,0-0.2,0.1-0.2,0.2v0.7
					C19.7,16.8,19.7,16.8,19.8,16.8z"></path>
				<path class="icon" d="M21.8,15.2h0.7c0.1,0,0.2-0.1,0.2-0.2v-0.7c0-0.1-0.1-0.2-0.2-0.2h-0.7c-0.1,0-0.2,0.1-0.2,0.2v0.7
					C21.6,15.2,21.7,15.2,21.8,15.2z"></path>
				<path class="icon" d="M17.1,17.7v0.7c0,0.1,0.1,0.2,0.2,0.2h0.7c0.1,0,0.2-0.1,0.2-0.2v-0.7c0-0.1-0.1-0.2-0.2-0.2h-0.7
					C17.2,17.5,17.1,17.6,17.1,17.7z"></path>
				<path class="icon" d="M18.2,16.8h0.7c0.1,0,0.2-0.1,0.2-0.2V16c0-0.1-0.1-0.2-0.2-0.2h-0.7c-0.1,0-0.2,0.1-0.2,0.2v0.7
					C18,16.8,18.1,16.8,18.2,16.8z"></path>
				<path class="icon" d="M19.1,17.5c-0.1,0-0.2,0.1-0.2,0.2v0.7c0,0.1,0.1,0.2,0.2,0.2h0.7c0.1,0,0.2-0.1,0.2-0.2v-0.7c0-0.1-0.1-0.2-0.2-0.2H19.1z
					"></path>
				<path class="icon" d="M14.5,16v0.7c0,0.1,0.1,0.2,0.2,0.2h0.7c0.1,0,0.2-0.1,0.2-0.2V16c0-0.1-0.1-0.2-0.2-0.2h-0.7C14.6,15.8,14.5,15.9,14.5,16
					z"></path>
				<path class="icon" d="M11.1,18.3v-0.7c0-0.1-0.1-0.2-0.2-0.2h-0.7c-0.1,0-0.2,0.1-0.2,0.2v0.7c0,0.1,0.1,0.2,0.2,0.2h0.7
					C11,18.5,11.1,18.4,11.1,18.3z"></path>
				<path class="icon" d="M21.3,17.5h-0.7c-0.1,0-0.2,0.1-0.2,0.2v0.7c0,0.1,0.1,0.2,0.2,0.2h0.7c0.1,0,0.2-0.1,0.2-0.2v-0.7
					C21.5,17.6,21.4,17.5,21.3,17.5z"></path>
				<path class="icon" d="M24,19.2h-0.7c-0.1,0-0.2,0.1-0.2,0.2V20c0,0.1,0.1,0.2,0.2,0.2H24c0.1,0,0.2-0.1,0.2-0.2v-0.7
					C24.2,19.2,24.1,19.2,24,19.2z"></path>
				<path class="icon" d="M20.8,19.2H10.7c-0.1,0-0.2,0.1-0.2,0.2V20c0,0.1,0.1,0.2,0.2,0.2h10.1c0.1,0,0.2-0.1,0.2-0.2v-0.7
					C21,19.2,20.9,19.2,20.8,19.2z"></path>
				<path class="icon" d="M22.4,19.2h-0.7c-0.1,0-0.2,0.1-0.2,0.2V20c0,0.1,0.1,0.2,0.2,0.2h0.7c0.1,0,0.2-0.1,0.2-0.2v-0.7
					C22.6,19.2,22.5,19.2,22.4,19.2z"></path>
				<path class="icon" d="M24,17.5h-1.7c-0.1,0-0.2,0.1-0.2,0.2v0.7c0,0.1,0.1,0.2,0.2,0.2H24c0.1,0,0.2-0.1,0.2-0.2v-0.7
					C24.2,17.6,24.1,17.5,24,17.5z"></path>
				<path class="icon" d="M16,0C7.2,0,0,7.2,0,16s7.2,16,16,16s16-7.2,16-16S24.8,0,16,0z M13,12.8c0-1.2,1-2.2,2.2-2.2h1.2c0.9,0,1.6-0.7,1.6-1.6
					V7.6c0-0.2,0.1-0.3,0.3-0.3c0.2,0,0.3,0.1,0.3,0.3V9c0,1.2-1,2.2-2.2,2.2h-1.2c-0.9,0-1.6,0.7-1.6,1.6v0c0,0.2-0.1,0.3-0.3,0.3
					C13.1,13.1,13,13,13,12.8L13,12.8z M6.7,22.2C6.7,22.2,6.7,22.2,6.7,22.2C6.7,22.2,6.8,22.3,6.7,22.2C6.7,22.3,6.7,22.2,6.7,22.2z
					 M24.9,20.6c0,0.2-0.2,0.4-0.4,0.4H7.1c-0.2,0-0.4-0.2-0.4-0.4v-6.7c0-0.2,0.2-0.4,0.4-0.4h17.4c0.2,0,0.4,0.2,0.4,0.4V20.6z"></path>
				<path class="icon" d="M24,14.2h-0.7c-0.1,0-0.2,0.1-0.2,0.2v0.7c0,0.1,0.1,0.2,0.2,0.2H24c0.1,0,0.2-0.1,0.2-0.2v-0.7
					C24.2,14.3,24.1,14.2,24,14.2z"></path>
				<path class="icon" d="M24,15.8h-0.7c-0.1,0-0.2,0.1-0.2,0.2v0.7c0,0.1,0.1,0.2,0.2,0.2H24c0.1,0,0.2-0.1,0.2-0.2V16C24.2,15.9,24.1,15.8,24,15.8
					z"></path>
				<path class="icon" d="M10.7,15.2h0.7c0.1,0,0.2-0.1,0.2-0.2v-0.7c0-0.1-0.1-0.2-0.2-0.2h-0.7c-0.1,0-0.2,0.1-0.2,0.2v0.7
					C10.5,15.2,10.6,15.2,10.7,15.2z"></path>
				<path class="icon" d="M9.4,16v0.7c0,0.1,0.1,0.2,0.2,0.2h0.7c0.1,0,0.2-0.1,0.2-0.2V16c0-0.1-0.1-0.2-0.2-0.2H9.6C9.5,15.8,9.4,15.9,9.4,16z"></path>
				<path class="icon" d="M9.7,19.2H9.1c-0.1,0-0.2,0.1-0.2,0.2V20c0,0.1,0.1,0.2,0.2,0.2h0.7c0.1,0,0.2-0.1,0.2-0.2v-0.7
					C9.9,19.2,9.8,19.2,9.7,19.2z"></path>
				<path class="icon" d="M11.1,16v0.7c0,0.1,0.1,0.2,0.2,0.2h0.7c0.1,0,0.2-0.1,0.2-0.2V16c0-0.1-0.1-0.2-0.2-0.2h-0.7C11.2,15.8,11.1,15.9,11.1,16
					z"></path>
				<path class="icon" d="M7.5,15.2h0.7c0.1,0,0.2-0.1,0.2-0.2v-0.7c0-0.1-0.1-0.2-0.2-0.2H7.5c-0.1,0-0.2,0.1-0.2,0.2v0.7
					C7.3,15.2,7.4,15.2,7.5,15.2z"></path>
				<path class="icon" d="M9.1,15.2h0.7c0.1,0,0.2-0.1,0.2-0.2v-0.7c0-0.1-0.1-0.2-0.2-0.2H9.1c-0.1,0-0.2,0.1-0.2,0.2v0.7C8.9,15.2,9,15.2,9.1,15.2
					z"></path>
				<path class="icon" d="M7.5,18.5h1.7c0.1,0,0.2-0.1,0.2-0.2v-0.7c0-0.1-0.1-0.2-0.2-0.2H7.5c-0.1,0-0.2,0.1-0.2,0.2v0.7
					C7.3,18.4,7.4,18.5,7.5,18.5z"></path>
				<path class="icon" d="M8.1,19.2H7.5c-0.1,0-0.2,0.1-0.2,0.2V20c0,0.1,0.1,0.2,0.2,0.2h0.7c0.1,0,0.2-0.1,0.2-0.2v-0.7
					C8.3,19.2,8.2,19.2,8.1,19.2z"></path>
				<path class="icon" d="M7.5,16.8h1.2c0.1,0,0.2-0.1,0.2-0.2V16c0-0.1-0.1-0.2-0.2-0.2H7.5c-0.1,0-0.2,0.1-0.2,0.2v0.7C7.3,16.8,7.4,16.8,7.5,16.8
					z"></path></g></svg>
