<svg xmlns="http://www.w3.org/2000/svg" viewBox="0 0 32 32"><g>
		<path class="icon" d="M19.6,9.8c-0.3,0-0.6,0.1-0.9,0.3c-0.2,0.2-0.4,0.5-0.4,0.8c0,0.3,0.1,0.6,0.3,0.9c0.2,0.2,0.5,0.4,0.8,0.4
			c0.3,0,0.6-0.1,0.9-0.3c0.2-0.2,0.4-0.5,0.4-0.8c0-0.3-0.1-0.6-0.3-0.9C20.2,10,19.9,9.9,19.6,9.8z"></path>
		<path class="icon" d="M16,0C7.2,0,0,7.2,0,16s7.2,16,16,16s16-7.2,16-16S24.8,0,16,0z M6.7,22.2C6.7,22.2,6.7,22.2,6.7,22.2
			C6.7,22.2,6.8,22.3,6.7,22.2C6.7,22.3,6.7,22.2,6.7,22.2z M22.4,16.8c0,0.3-0.1,0.7-0.3,1.1c-0.2,0.4-0.4,0.7-0.6,0.9l-6.9,6.5
			c-0.3,0.2-0.5,0.3-0.9,0.3c-0.3,0-0.6-0.1-0.8-0.4l-4.5-4.7C8.1,20.3,8,20.1,8,19.7c0-0.2,0.1-0.4,0.1-0.6c0.1-0.1,0.2-0.3,0.4-0.5
			l4.3,4.5c0.2,0.2,0.5,0.4,0.8,0.4c0.3,0,0.6-0.1,0.9-0.3l6.9-6.5c0.2-0.2,0.5-0.5,0.6-0.9c0.2-0.4,0.3-0.8,0.3-1.1L22.4,16.8z
			 M22.5,13.2c0,0.3-0.1,0.7-0.3,1.1c-0.2,0.4-0.4,0.7-0.6,0.9l-6.9,6.5c-0.3,0.2-0.5,0.3-0.9,0.3c-0.3,0-0.6-0.1-0.8-0.4L8.5,17
			c-0.2-0.3-0.3-0.5-0.3-0.9c0-0.3,0.1-0.6,0.4-0.8l6.9-6.5c0.2-0.2,0.6-0.4,1-0.6C16.8,8,17.2,8,17.5,8l3.9,0.1
			c0.3,0,0.6,0.1,0.8,0.4c0.2,0.2,0.3,0.5,0.3,0.9L22.5,13.2z"></path></g></svg>
