<svg xmlns="http://www.w3.org/2000/svg" viewBox="0 0 32 32"><g><path class="icon" d="M16,0A16,16,0,1,0,32,16,16,16,0,0,0,16,0Zm7.42,12.56c0,.17,0,.33,0,.5A10.89,10.89,0,0,1,6.68,22.23a9.08,9.08,0,0,0,.91.05,7.66,7.66,0,0,0,4.75-1.64A3.82,3.82,0,0,1,8.77,18a3.38,3.38,0,0,0,.72.07,3.71,3.71,0,0,0,1-.13,3.83,3.83,0,0,1-3.07-3.75v-.05a3.73,3.73,0,0,0,1.73.48,3.83,3.83,0,0,1-1.7-3.19A3.77,3.77,0,0,1,8,9.49a10.9,10.9,0,0,0,7.89,4,3.57,3.57,0,0,1-.1-.87A3.83,3.83,0,0,1,22.38,10a7.61,7.61,0,0,0,2.43-.93,3.89,3.89,0,0,1-1.68,2.12,7.65,7.65,0,0,0,2.19-.61A7.78,7.78,0,0,1,23.42,12.56Z"></path></g></svg>
