<svg xmlns="http://www.w3.org/2000/svg" viewBox="0 0 32 32"><g><path class="icon" d="M15.45,24.09V20.87a7.46,7.46,0,0,0-2.13.42A10.44,10.44,0,0,0,15.45,24.09Z"></path><path class="icon" d="M20.51,10.32a7.8,7.8,0,0,0-3.78-1.59,11.3,11.3,0,0,1,1.93,2.67A7.94,7.94,0,0,0,20.51,10.32Z"></path><path class="icon" d="M11,22.58a7.67,7.67,0,0,0,3.64,1.51A10.86,10.86,0,0,1,12.8,21.5,7.69,7.69,0,0,0,11,22.58Z"></path><path class="icon" d="M15.45,12V8.74a10.78,10.78,0,0,0-2.16,2.85A8,8,0,0,0,15.45,12Z"></path><path class="icon" d="M13.07,20.78a8.11,8.11,0,0,1,2.38-.47V16.69H12.12A10.35,10.35,0,0,0,13.07,20.78Z"></path><path class="icon" d="M14.66,8.74a7.64,7.64,0,0,0-3.72,1.58,7.44,7.44,0,0,0,1.83,1.07A11,11,0,0,1,14.66,8.74Z"></path><path class="icon" d="M12.12,16.14h3.32V12.52a8,8,0,0,1-2.39-.43A10.54,10.54,0,0,0,12.12,16.14Z"></path><path class="icon" d="M12.53,11.89a8.11,8.11,0,0,1-2-1.2A7.69,7.69,0,0,0,8,16.14h3.6A11.19,11.19,0,0,1,12.53,11.89Z"></path><path class="icon" d="M11.57,16.69H8a7.69,7.69,0,0,0,2.62,5.53,8.29,8.29,0,0,1,2-1.23A11.15,11.15,0,0,1,11.57,16.69Z"></path><path class="icon" d="M16,8.8V12a8,8,0,0,0,2.14-.38A10.43,10.43,0,0,0,16,8.8Z"></path><path class="icon" d="M18.9,11.9a10.93,10.93,0,0,1,1,4.24h3.6a7.74,7.74,0,0,0-2.54-5.46A8.24,8.24,0,0,1,18.9,11.9Z"></path><path class="icon" d="M18.91,20.91A8.33,8.33,0,0,1,21,22.14a7.74,7.74,0,0,0,2.52-5.45h-3.6A10.78,10.78,0,0,1,18.91,20.91Z"></path><path class="icon" d="M16,0A16,16,0,1,0,32,16,16,16,0,0,0,16,0Zm-.28,24.73a8.32,8.32,0,1,1,8.33-8.31A8.32,8.32,0,0,1,15.72,24.73Z"></path><path class="icon" d="M16,20.86V24a10.72,10.72,0,0,0,2.15-2.81A7.63,7.63,0,0,0,16,20.86Z"></path><path class="icon" d="M19.32,16.69H16v3.62a7.88,7.88,0,0,1,2.39.41A10.22,10.22,0,0,0,19.32,16.69Z"></path><path class="icon" d="M18.38,12.09a7.83,7.83,0,0,1-2.38.43v3.62h3.32A10.37,10.37,0,0,0,18.38,12.09Z"></path><path class="icon" d="M16.73,24.1a7.63,7.63,0,0,0,3.79-1.6,7.6,7.6,0,0,0-1.85-1.08A11.19,11.19,0,0,1,16.73,24.1Z"></path></g></svg>
